<?xml version="1.0" standalone="no"?>
<!DOCTYPE svg PUBLIC "-//W3C//DTD SVG 20010904//EN"
 "http://www.w3.org/TR/2001/REC-SVG-20010904/DTD/svg10.dtd">
<svg version="1.0" xmlns="http://www.w3.org/2000/svg"
 width="320.000000pt" height="320.000000pt" viewBox="0 0 320.000000 320.000000"
 preserveAspectRatio="xMidYMid meet">

<g transform="translate(0.000000,320.000000) scale(0.100000,-0.100000)"
fill="#000000" stroke="none">
<path d="M1528 3140 c-61 -33 -152 -124 -180 -182 -14 -29 -29 -75 -33 -103
-4 -27 -17 -66 -30 -85 -12 -19 -36 -60 -53 -90 -26 -46 -32 -52 -38 -35 -41
119 -64 131 -115 61 -26 -38 -34 -43 -49 -34 -23 15 -48 4 -59 -24 -6 -13 -53
-126 -107 -253 -53 -126 -97 -243 -98 -260 -1 -26 3 -30 26 -33 l27 -3 -19
-43 c-10 -23 -37 -94 -60 -156 -35 -96 -39 -115 -27 -127 11 -11 19 -11 50 2
l36 15 -46 -108 c-25 -59 -68 -170 -95 -247 -50 -141 -52 -172 -14 -169 12 1
13 -2 5 -19 -24 -44 -90 -241 -85 -254 3 -7 13 -13 22 -13 12 0 15 -6 10 -22
-31 -111 -56 -219 -56 -247 0 -30 2 -33 24 -29 27 5 26 12 11 -82 -3 -21 1
-33 15 -43 20 -14 20 -15 -6 -71 -34 -75 -30 -91 25 -92 39 0 45 -4 56 -31 7
-17 18 -34 25 -38 7 -4 43 14 87 44 41 28 79 51 83 51 4 0 13 -7 20 -15 18
-22 40 -18 71 11 27 25 27 26 34 5 8 -26 39 -27 57 -2 13 18 15 17 83 -10 39
-16 79 -29 90 -29 53 -1 53 -13 -4 -129 -48 -96 -53 -112 -41 -126 10 -13 23
-15 51 -11 34 5 37 4 45 -26 17 -58 34 -58 141 -3 54 28 101 52 105 53 5 2 8
-6 8 -19 0 -21 2 -22 70 -15 l71 6 -7 -35 c-9 -48 13 -54 95 -26 133 46 259
131 327 220 25 32 45 49 55 47 9 -2 21 -1 25 3 31 22 107 152 120 204 5 20 11
26 24 22 9 -3 22 0 27 7 19 24 42 112 54 203 20 167 17 157 40 144 44 -23 49
-9 49 132 0 131 0 132 20 114 11 -10 26 -15 36 -11 21 8 14 60 -31 243 -23 92
-46 156 -74 208 l-40 75 24 5 c14 3 36 7 50 10 32 7 34 47 3 67 -21 14 -21 15
21 22 48 7 101 32 101 46 0 5 -17 21 -37 36 -102 75 -111 99 -69 182 42 83 59
189 54 332 -4 112 -2 130 14 149 45 57 44 206 -2 304 -28 59 -87 127 -110 127
-12 0 -32 -19 -51 -47 -40 -60 -129 -153 -146 -153 -7 0 -31 13 -54 29 -85 62
-333 141 -441 141 -47 0 -47 0 -58 43 -33 128 -73 208 -103 207 -7 -1 -29 -10
-49 -20z m70 -102 c11 -35 28 -89 37 -120 8 -32 21 -58 28 -59 7 0 36 0 64 1
l53 1 -15 -35 c-8 -19 -15 -42 -15 -51 0 -27 18 -16 30 19 17 53 28 57 96 40
32 -9 60 -17 62 -18 1 -2 -11 -32 -27 -67 -37 -81 -46 -129 -26 -129 8 0 15 7
15 15 0 25 31 107 53 140 21 32 22 32 59 19 75 -26 80 -31 63 -64 -18 -36 -19
-40 -2 -40 8 0 19 11 25 25 15 32 24 32 78 -6 32 -21 52 -29 68 -25 25 6 108
81 145 131 l22 30 -6 -105 c-4 -58 -10 -125 -15 -150 -10 -53 1 -71 30 -52 18
11 22 9 31 -15 49 -129 34 -354 -32 -487 -31 -62 -32 -67 -20 -108 8 -24 28
-56 49 -75 38 -35 37 -36 -31 -48 -45 -7 -55 -26 -33 -60 16 -25 16 -25 -15
-32 -17 -3 -33 -13 -36 -21 -8 -19 -113 -66 -180 -80 -97 -21 -210 -25 -304
-12 -80 12 -92 16 -106 39 -43 70 -59 90 -74 94 -10 3 -20 20 -24 38 -4 19
-14 44 -22 57 l-14 23 -52 -28 c-29 -16 -59 -28 -68 -26 -10 3 -29 -11 -46
-32 l-30 -36 -74 38 c-137 70 -292 242 -339 376 -23 66 -25 87 -7 87 7 0 21 6
31 13 16 11 16 15 1 49 -8 21 -15 40 -15 43 0 3 21 5 48 6 75 1 82 7 109 95
14 43 33 88 43 99 10 11 32 49 50 85 18 36 48 89 67 118 27 43 37 52 53 47 14
-5 20 -2 20 10 0 63 134 305 169 305 4 0 17 -28 29 -62z m-154 -50 c-15 -24
-37 -65 -50 -93 -13 -29 -23 -42 -23 -30 -1 28 31 94 63 133 38 44 41 40 10
-10z m1062 -236 c8 -25 14 -75 14 -111 0 -59 -2 -67 -24 -77 -19 -9 -25 -8
-35 8 -7 12 -18 17 -28 14 -11 -5 -14 -2 -8 11 3 10 9 75 12 146 l6 127 25
-37 c14 -20 31 -56 38 -81z m-1364 -291 c-29 -88 -32 -91 -119 -91 -59 0 -62
-5 -38 -63 19 -46 19 -44 -10 -51 -21 -5 -25 -12 -25 -41 0 -131 194 -382 363
-470 l53 -28 -22 -24 c-12 -13 -32 -48 -45 -78 -15 -33 -29 -53 -36 -50 -22 7
-49 -33 -82 -118 -48 -126 -60 -231 -45 -395 5 -52 11 -67 36 -93 77 -77 241
-123 413 -117 97 4 118 8 175 34 82 38 124 85 117 130 l-5 32 76 -20 c70 -18
77 -18 88 -3 11 15 17 15 78 -3 61 -18 86 -16 72 7 -3 5 -42 19 -87 31 -78 21
-117 21 -104 0 8 -14 2 -13 -86 11 -75 20 -79 23 -90 57 -6 21 -22 57 -35 81
-27 49 -27 48 36 82 58 30 80 49 80 66 0 10 -6 12 -20 8 -14 -5 -20 -2 -20 9
0 47 -63 185 -95 209 -5 4 15 4 45 0 85 -12 289 -8 350 7 30 7 79 23 109 36
29 13 57 21 62 18 25 -15 89 -169 113 -270 14 -61 26 -115 26 -120 0 -5 -12
-10 -27 -9 l-28 0 4 -138 3 -137 -26 11 c-19 9 -30 9 -37 2 -6 -6 -15 -57 -20
-114 -15 -170 -21 -195 -47 -191 -25 4 -44 -30 -57 -99 -4 -20 -19 -60 -34
-90 -23 -46 -30 -54 -52 -51 -22 3 -31 -6 -62 -56 -57 -92 -158 -181 -268
-235 -52 -26 -98 -47 -102 -47 -4 0 -7 16 -5 35 1 19 -1 37 -5 41 -3 4 -34 2
-67 -3 l-60 -10 3 31 c2 26 -2 31 -23 34 -15 1 -43 -10 -69 -27 -43 -29 -46
-29 -80 -15 -39 16 -118 73 -125 90 -2 6 7 37 21 68 25 55 26 57 7 71 -10 8
-35 17 -54 20 -47 8 -150 44 -175 61 -26 18 -52 18 -63 -1 -7 -13 -10 -12 -20
10 -16 35 -37 31 -65 -10 -21 -31 -26 -33 -37 -20 -16 20 -45 19 -80 -2 -28
-16 -30 -16 -84 17 -65 39 -71 51 -51 91 21 39 5 73 -31 66 -19 -3 -23 -1 -20
12 3 9 8 37 11 62 6 38 4 47 -10 53 -9 3 -21 4 -26 0 -5 -3 -9 -1 -9 4 0 16
67 248 78 268 12 23 5 40 -20 45 -16 4 -12 17 28 114 55 132 63 162 40 171 -9
3 -23 1 -31 -6 -21 -17 27 116 106 295 33 77 63 152 66 167 6 34 -16 46 -54
29 -14 -6 -28 -9 -31 -7 -2 3 20 72 51 152 44 115 54 151 45 161 -6 8 -20 12
-30 10 -10 -3 -18 -2 -18 3 0 4 30 78 66 163 l65 156 102 24 c56 14 103 25
104 26 0 1 -10 -35 -25 -78z m578 -878 c0 -17 -35 -16 -49 1 -9 11 -5 13 19
12 17 -1 30 -7 30 -13z m-204 -58 c-53 -21 -62 -23 -90 -11 l-31 14 25 10 c14
6 54 11 90 11 l65 1 -59 -25z m71 -40 c15 -8 68 -31 117 -51 65 -27 90 -34 96
-25 8 15 20 -8 20 -40 0 -16 -7 -19 -51 -19 -45 0 -60 6 -113 44 -33 24 -81
54 -106 66 -39 20 -42 24 -25 31 28 11 30 11 62 -6z m47 -120 c23 -18 20 -19
-94 -34 -119 -15 -203 -38 -289 -77 -41 -19 -76 -34 -79 -34 -8 0 7 120 18
138 8 15 9 14 10 -5 0 -29 27 -30 175 -3 189 33 232 36 259 15z m-360 -162
c11 -35 67 -82 120 -102 69 -26 179 -45 211 -37 18 5 25 2 25 -9 0 -15 17 -18
85 -16 l30 0 -30 -10 c-46 -17 -239 -12 -338 8 -49 9 -116 31 -150 48 -51 24
-63 35 -65 57 -3 23 3 30 45 52 58 30 60 31 67 9z m380 -82 c3 -4 -1 -16 -8
-26 -13 -17 -13 -17 -13 8 0 26 10 36 21 18z m-304 -115 c41 -10 127 -20 191
-23 102 -5 123 -3 185 17 38 12 73 26 78 31 21 19 36 9 36 -25 0 -43 -18 -62
-100 -100 -61 -29 -72 -31 -180 -30 -124 1 -210 18 -289 59 -70 35 -91 56 -98
98 l-6 37 54 -24 c30 -12 88 -31 129 -40z"/>
<path d="M1425 2475 c-89 -32 -120 -142 -65 -233 29 -48 75 -72 138 -72 39 0
52 -4 52 -15 0 -30 54 -75 100 -84 25 -5 63 -16 85 -25 51 -19 79 -20 116 -1
27 14 31 14 57 -4 120 -86 272 -15 272 128 0 59 -15 93 -59 135 -45 43 -123
48 -184 13 -24 -14 -52 -41 -62 -61 -19 -35 -19 -35 -40 -16 -29 27 -105 60
-140 60 -28 0 -30 3 -31 39 -3 83 -72 151 -153 151 -25 -1 -64 -7 -86 -15z
m162 -40 c25 -17 31 -63 11 -83 -19 -19 -76 -14 -98 8 -22 22 -25 51 -9 82 9
16 17 19 42 14 17 -3 41 -13 54 -21z m-132 -31 c1 -38 6 -51 28 -70 30 -26 92
-33 128 -14 34 19 23 -22 -16 -59 -19 -18 -35 -39 -35 -47 0 -10 -14 -14 -52
-14 -96 0 -139 42 -142 135 -1 52 2 59 32 86 46 41 57 38 57 -17z m614 -105
c24 -9 31 -17 31 -38 0 -34 -17 -51 -50 -51 -54 0 -91 55 -58 88 15 15 36 15
77 1z m-94 -89 c14 -13 41 -24 68 -27 39 -5 46 -2 69 26 30 35 38 26 38 -41 0
-56 -31 -102 -81 -122 -37 -15 -46 -15 -93 -2 -66 20 -82 38 -89 105 -7 56 0
79 37 119 l21 24 3 -30 c2 -16 14 -40 27 -52z m-198 30 c77 -34 111 -131 58
-166 -24 -15 -29 -15 -93 4 -37 11 -83 24 -102 29 -73 18 -78 95 -10 141 39
26 73 24 147 -8z"/>
<path d="M1682 2198 c6 -18 28 -21 28 -4 0 9 -7 16 -16 16 -9 0 -14 -5 -12
-12z"/>
<path d="M1752 2169 c2 -6 8 -10 13 -10 5 0 11 4 13 10 2 6 -4 11 -13 11 -9 0
-15 -5 -13 -11z"/>
<path d="M1627 1973 c-4 -3 -7 -10 -7 -15 0 -13 97 -56 157 -69 67 -15 84 -4
73 47 -5 20 -11 39 -15 42 -4 4 -28 -5 -55 -20 l-48 -27 -49 24 c-56 29 -48
27 -56 18z m190 -59 c-2 -2 -12 -2 -21 2 -15 6 -15 7 1 20 15 11 19 10 21 -2
2 -9 2 -18 -1 -20z"/>
<path d="M1850 1828 c-25 -41 -25 -45 -1 -58 34 -17 68 -12 85 15 22 34 20 42
-14 60 -41 21 -48 19 -70 -17z m60 -17 c0 -14 -18 -23 -30 -16 -6 4 -8 11 -5
16 8 12 35 12 35 0z"/>
</g>
</svg>
